# xmcd CD database file
#
# Track frame offsets:
#	150
#	13382
#	27305
#	45592
#	60320
#	68090
#	81335
#	87545
#	101312
#	108532
#	128377
#	134635
#	150432
#	156687
#	164300
#
# Disc length: 2368 seconds
#
# Revision: 12
# Processed by: cddbd v1.5.2PL0 Copyright (c) Steve Scherf et al.
# Submitted via: CDex 1.50
#
DISCID=c3093e0f
DTITLE=Enya - Enya
DYEAR=1986
DGENRE=New Age
TTITLE0=The Celts
TTITLE1=Aldebaran
TTITLE2=I Want Tomorrow
TTITLE3=March of the Celts
TTITLE4=Deireadh an Tuath
TTITLE5=The Sun in the Stream
TTITLE6=To Go Beyond, Part 1
TTITLE7=Fairytale
TTITLE8=Epona
TTITLE9=Triad - St Patrick Cu Chulainn Oisin
TTITLE10=Portrait (Out of the Blue)
TTITLE11=Boadicea
TTITLE12=Bard Dance
TTITLE13=Dan Y Dwr
TTITLE14=To Go Beyond, Part 2
EXTD=Original: Biblioteca de Aragón\n\nBBC Enterprises - Atlantic - WEA\nCD 81842\nUPC: 7567-81842-2\n\nComposed in 1986 for the BBC documentary "The Celts", originally broadcast in 1987.\nRemastered and Reissued in 1992 as"The Celts" with a different ve
EXTD=rsio of "Portrait";\nthis is the originalepynomous release. YEAR: 1986
EXTT0=Enya (1987)
EXTT1=(Dedicated to Ridley Scott) Enya (1987)
EXTT2=Enya (1987)
EXTT3=Enya (1987)
EXTT4=Enya (1987)
EXTT5=Enya (1987)
EXTT6=Enya (1987)
EXTT7=Enya (1987)
EXTT8=Enya (1987)
EXTT9=Enya (1987)
EXTT10=Enya (1987)
EXTT11=Enya (1987)
EXTT12=Enya (1987)
EXTT13=Enya (1987)
EXTT14=Enya (1987)
PLAYORDER=
